<svg width="70" height="70" viewBox="0 0 70 70" fill="none" xmlns="http://www.w3.org/2000/svg">
  <path d="M14.0584 36.9781C12.9888 31.2733 17.3652 26 23.1694 26V26C28.8595 26 33.2064 31.0789 32.328 36.7008L29.5285 54.6175C29.2243 56.5646 27.5472 58 25.5765 58H21.3197C19.3948 58 17.7429 56.629 17.3882 54.7372L14.0584 36.9781Z" fill="white" fill-opacity="0.75"/>
  <circle cx="23" cy="19" r="6" fill="white" fill-opacity="0.75" />
  <path d="M39.0272 36.8116C37.9738 31.1934 42.2839 26 48 26V26C53.7161 26 58.0262 31.1934 56.9728 36.8116L53.6118 54.7372C53.2571 56.629 51.6052 58 49.6803 58H46.3197C44.3948 58 42.7429 56.629 42.3882 54.7372L39.0272 36.8116Z" fill="white" fill-opacity="0.55"/>
  <circle cx="48" cy="19" r="6" fill="white" fill-opacity="0.55" />
  <path d="M36.2392 37.1961C36.1155 36.5773 36.5888 36 37.2198 36H54.7802C55.4112 36 55.8845 36.5773 55.7608 37.1961L54.1608 45.1961C54.0673 45.6635 53.6569 46 53.1802 46H38.8198C38.3431 46 37.9327 45.6635 37.8392 45.1961L36.2392 37.1961Z" fill="#64748B"/>
  <path d="M46.6722 41.2154C46.6711 41.027 46.7593 40.8847 46.9378 40.78C46.8379 40.6419 46.687 40.5659 46.4878 40.551C46.2991 40.5366 46.093 40.6573 46.0175 40.6573C45.9378 40.6573 45.755 40.5561 45.6116 40.5561C45.3151 40.5607 45 40.7846 45 41.2401C45 41.3746 45.0255 41.5136 45.0765 41.657C45.1445 41.8455 45.39 42.3076 45.6461 42.2999C45.78 42.2968 45.8746 42.208 46.0489 42.208C46.2179 42.208 46.3055 42.2999 46.4548 42.2999C46.7131 42.2963 46.9352 41.8763 47 41.6873C46.6536 41.5297 46.6722 41.2252 46.6722 41.2154ZM46.3714 40.3723C46.5165 40.2059 46.5032 40.0544 46.4989 40C46.3709 40.0072 46.2226 40.0842 46.1382 40.1792C46.0452 40.2809 45.9904 40.4067 46.0021 40.5484C46.1408 40.5587 46.2673 40.4899 46.3714 40.3723Z" fill="white"/>
</svg>

