<svg width="70" height="70" viewBox="0 0 70 70" fill="none" xmlns="http://www.w3.org/2000/svg">
  <path d="M16.0272 36.8116C14.9738 31.1934 19.2839 26 25 26V26C30.7161 26 35.0262 31.1934 33.9728 36.8116L30.6118 54.7372C30.2571 56.629 28.6052 58 26.6803 58H23.3197C21.3948 58 19.7429 56.629 19.3882 54.7372L16.0272 36.8116Z" fill="white" fill-opacity="0.75"/>
  <circle cx="29" cy="19" r="6" fill="white" fill-opacity="0.75" />
  <path d="M38.9946 44.7762C37.9729 40.2807 41.3898 36 46 36V36C50.6102 36 54.0271 40.2807 53.0054 44.7762L50.7076 54.8865C50.2937 56.7076 48.6747 58 46.8071 58H45.1929C43.3253 58 41.7063 56.7076 41.2924 54.8865L38.9946 44.7762Z" fill="white" fill-opacity="0.55"/>
  <circle cx="46" cy="30" r="5" fill="white" fill-opacity="0.55" />
  <path d="M36.2392 42.1961C36.1155 41.5773 36.5888 41 37.2198 41H54.7802C55.4112 41 55.8845 41.5773 55.7608 42.1961L54.1608 50.1961C54.0673 50.6635 53.6569 51 53.1802 51H38.8198C38.3431 51 37.9327 50.6635 37.8392 50.1961L36.2392 42.1961Z" fill="#64748B"/>
  <path d="M46.6722 46.2154C46.6711 46.027 46.7593 45.8847 46.9378 45.78C46.8379 45.6419 46.687 45.5659 46.4878 45.551C46.2991 45.5366 46.093 45.6573 46.0175 45.6573C45.9378 45.6573 45.755 45.5561 45.6116 45.5561C45.3151 45.5607 45 45.7846 45 46.2401C45 46.3746 45.0255 46.5136 45.0765 46.657C45.1445 46.8455 45.39 47.3076 45.6461 47.2999C45.78 47.2968 45.8746 47.208 46.0489 47.208C46.2179 47.208 46.3055 47.2999 46.4548 47.2999C46.7131 47.2963 46.9352 46.8763 47 46.6873C46.6536 46.5297 46.6722 46.2252 46.6722 46.2154ZM46.3714 45.3723C46.5165 45.2059 46.5032 45.0544 46.4989 45C46.3709 45.0072 46.2226 45.0842 46.1382 45.1792C46.0452 45.2809 45.9904 45.4067 46.0021 45.5484C46.1408 45.5587 46.2673 45.4899 46.3714 45.3723Z" fill="white"/>
</svg>
