<svg width="70" height="70" viewBox="0 0 70 70" fill="none" xmlns="http://www.w3.org/2000/svg">
  <path d="M27.0272 36.8116C25.9738 31.1934 30.2839 26 36 26V26C41.7161 26 46.0262 31.1934 44.9728 36.8116L41.6118 54.7372C41.2571 56.629 39.6052 58 37.6803 58H34.3197C32.3948 58 30.7429 56.629 30.3882 54.7372L27.0272 36.8116Z" fill="white" fill-opacity="0.75"/>
  <circle cx="36" cy="19" r="6" fill="white" fill-opacity="0.75" />
  <path d="M24.2392 36.1961C24.1155 35.5773 24.5888 35 25.2198 35H42.7802C43.4112 35 43.8845 35.5773 43.7608 36.1961L42.1608 44.1961C42.0673 44.6635 41.6569 45 41.1802 45H26.8198C26.3431 45 25.9327 44.6635 25.8392 44.1961L24.2392 36.1961Z" fill="#64748B"/>
  <path d="M34.6722 40.2154C34.6711 40.027 34.7593 39.8847 34.9378 39.78C34.8379 39.6419 34.687 39.5659 34.4878 39.551C34.2991 39.5366 34.093 39.6573 34.0175 39.6573C33.9378 39.6573 33.755 39.5561 33.6116 39.5561C33.3151 39.5607 33 39.7846 33 40.2401C33 40.3746 33.0255 40.5136 33.0765 40.657C33.1445 40.8455 33.39 41.3076 33.6461 41.2999C33.78 41.2968 33.8746 41.208 34.0489 41.208C34.2179 41.208 34.3055 41.2999 34.4548 41.2999C34.7131 41.2963 34.9352 40.8763 35 40.6873C34.6536 40.5297 34.6722 40.2252 34.6722 40.2154ZM34.3714 39.3723C34.5165 39.2059 34.5032 39.0544 34.4989 39C34.3709 39.0072 34.2226 39.0842 34.1382 39.1792C34.0452 39.2809 33.9904 39.4067 34.0021 39.5484C34.1408 39.5587 34.2673 39.4899 34.3714 39.3723Z" fill="white"/>
</svg>
