<svg width="341" height="269" viewBox="0 0 341 269" fill="none" xmlns="http://www.w3.org/2000/svg">
<path fill-rule="evenodd" clip-rule="evenodd" d="M38.4389 163.216C20.5204 145.298 20.5204 116.246 38.4389 98.3274L103.327 33.4389C121.246 15.5204 150.298 15.5204 168.216 33.4389L233.105 98.3275C239.301 104.524 243.355 112.052 245.266 119.99C242.051 126.154 238.809 132.223 235.574 138.071C227.574 152.533 220.121 164.689 213.757 173.003C212.289 174.92 210.991 176.484 209.87 177.737C206.061 173.877 201.901 168.29 196.81 161.183C196.351 160.542 195.881 159.883 195.401 159.211C194.672 158.189 193.92 157.136 193.149 156.065C201.752 148.114 203.628 134.891 197.017 124.748L163.611 73.4962C156.231 62.174 141.07 58.978 129.748 66.3579L78.4962 99.7638C67.174 107.144 63.978 122.305 71.3579 133.627L97.923 174.383C93.4085 183.783 88.6138 194.959 83.4092 208.186L38.4389 163.216ZM116.203 237.175C133.22 245.195 154.149 242.172 168.216 228.105L185.397 210.924C183.628 209.426 182.082 207.945 180.767 206.617C174.29 200.071 168.306 191.798 163.478 185.056C163.346 184.873 163.216 184.69 163.086 184.509C162.823 184.142 162.563 183.779 162.306 183.42C161.132 181.779 160.021 180.226 158.963 178.762L138.627 192.017C137.07 193.032 135.441 193.846 133.769 194.468C128.786 205.095 123.013 219.012 116.203 237.175ZM205.762 181.596C205.763 181.588 205.851 181.525 206.023 181.432C205.846 181.557 205.76 181.604 205.762 181.596Z" fill="url(#paint0_linear_1_2)"/>
<path d="M90.4565 247.87C121.457 161.37 135.832 145.37 151.957 145.37C169.457 145.37 189.957 200.87 210.957 200.87C231.772 200.87 274.457 107.036 298.457 59.3696M298.457 59.3696L317.957 107.87M298.457 59.3696L244.457 69.8696" stroke="#B290FF" stroke-width="20" stroke-linecap="round"/>
<defs>
<linearGradient id="paint0_linear_1_2" x1="134.467" y1="0.994553" x2="134.467" y2="260.999" gradientUnits="userSpaceOnUse">
<stop stop-color="#8B5CF6"/>
<stop offset="1" stop-color="#D946EF"/>
</linearGradient>
</defs>
</svg>
